<?xml version="1.0" standalone="no"?>
<!DOCTYPE svg PUBLIC "-//W3C//DTD SVG 20010904//EN"
 "http://www.w3.org/TR/2001/REC-SVG-20010904/DTD/svg10.dtd">
<svg version="1.0" xmlns="http://www.w3.org/2000/svg"
 width="344.000000pt" height="344.000000pt" viewBox="0 0 344.000000 344.000000"
 preserveAspectRatio="xMidYMid meet">

<g transform="translate(0.000000,344.000000) scale(0.100000,-0.100000)"
fill="#ffd207" stroke="none">
<path d="M325 3426 c-51 -19 -91 -64 -106 -118 -19 -71 -6 -238 26 -338 118
-366 393 -699 691 -836 79 -37 192 -70 259 -76 l40 -3 6 80 c13 173 72 299
199 426 81 81 137 117 258 165 l24 9 -43 65 c-61 93 -247 274 -353 344 -243
161 -595 280 -861 292 -73 3 -111 1 -140 -10z"/>
<path d="M1150 3402 c284 -131 529 -335 664 -556 l60 -96 41 0 c39 0 42 2 53
35 10 34 8 40 -38 108 -203 302 -518 514 -803 542 l-62 6 85 -39z"/>
<path d="M2613 3429 c-134 -20 -279 -87 -325 -151 l-21 -31 23 -96 c12 -53 24
-100 26 -106 2 -5 -19 -27 -46 -47 -61 -47 -129 -143 -165 -233 -25 -61 -28
-83 -29 -180 0 -89 4 -121 22 -170 83 -225 301 -345 627 -345 244 0 416 73
479 203 35 71 41 136 22 226 -39 184 -177 375 -356 490 -72 47 -76 45 89 46
100 0 104 1 124 27 17 23 18 31 8 56 -18 43 -48 52 -181 52 -135 0 -202 -11
-278 -47 -33 -16 -78 -27 -117 -29 l-64 -5 -16 52 c-8 29 -15 59 -15 66 0 33
197 93 305 93 82 0 124 69 72 118 -26 24 -71 27 -184 11z m183 -555 c109 -74
199 -172 246 -268 21 -43 21 -49 8 -73 -30 -52 -65 -68 -148 -68 -67 0 -86 4
-144 33 -99 49 -148 123 -148 227 0 62 15 97 57 136 49 46 76 49 129 13z"/>
<path d="M1800 2609 c-320 -54 -523 -446 -380 -734 68 -137 173 -230 390 -347
154 -84 408 -105 562 -47 148 55 249 231 236 409 l-3 44 -80 13 c-179 30 -318
97 -421 204 -103 109 -147 204 -167 368 l-12 96 -35 2 c-19 0 -60 -3 -90 -8z"/>
<path d="M1178 1965 c-122 -45 -241 -183 -309 -359 -79 -203 -115 -424 -106
-650 7 -173 31 -303 80 -435 46 -123 91 -193 165 -260 35 -31 102 -94 151
-141 48 -47 102 -93 119 -103 l32 -18 0 68 0 68 75 12 c291 47 607 330 729
654 56 148 93 358 81 456 l-6 51 -70 4 -71 3 7 -42 c7 -51 6 -52 -110 -24
-180 44 -364 122 -494 211 -92 62 -204 172 -258 253 l-47 70 28 22 c16 13 45
28 66 35 l37 12 -15 52 c-8 28 -16 57 -18 64 -4 15 -19 14 -66 -3z m-129 -897
c107 -86 196 -142 346 -215 132 -64 319 -131 433 -154 34 -7 62 -17 62 -22 0
-11 -39 -67 -78 -112 l-34 -38 -81 6 c-157 11 -373 70 -509 138 -91 46 -203
126 -249 177 l-39 45 0 138 c0 171 2 178 42 133 17 -19 65 -62 107 -96z"/>
</g>
</svg>
