<?xml version="1.0" standalone="no"?>
<!DOCTYPE svg PUBLIC "-//W3C//DTD SVG 20010904//EN"
        "http://www.w3.org/TR/2001/REC-SVG-20010904/DTD/svg10.dtd">
<svg version="1.0" xmlns="http://www.w3.org/2000/svg"
     width="200.000000pt" height="200.000000pt" viewBox="0 0 200.000000 200.000000"
     preserveAspectRatio="xMidYMid meet">
    <metadata>
        Created by potrace 1.16, written by Peter Selinger 2001-2019
    </metadata>
    <g transform="translate(0.000000,200.000000) scale(0.100000,-0.100000)"
       fill="#ffd207" stroke="none">
        <path d="M635 1628 c-29 -16 -85 -70 -85 -82 0 -7 30 -11 78 -11 69 0 88 -4
165 -39 48 -21 90 -36 93 -33 11 10 -17 87 -43 118 -15 17 -42 38 -60 45 -39
17 -120 18 -148 2z"/>
        <path d="M1215 1626 c-17 -7 -43 -28 -58 -45 -26 -32 -54 -108 -43 -119 4 -3
36 7 74 23 119 50 145 57 204 53 62 -3 69 3 40 39 -47 58 -145 80 -217 49z"/>
        <path d="M557 1480 c-68 -17 -92 -37 -292 -237 -250 -250 -260 -267 -260 -448
0 -110 2 -125 28 -179 81 -173 238 -266 431 -254 66 5 99 12 148 35 81 38 156
107 192 175 37 67 33 64 54 45 68 -61 216 -61 284 0 21 19 17 22 53 -45 112
-208 406 -277 613 -142 70 45 122 105 159 186 26 54 28 69 28 179 0 115 -1
123 -33 187 -28 58 -61 96 -228 260 -220 218 -256 243 -359 242 -49 0 -79 -9
-160 -45 -99 -44 -101 -44 -215 -44 -114 0 -116 0 -207 42 -99 46 -171 59
-236 43z m0 -382 c33 -12 73 -38 104 -69 169 -164 123 -437 -91 -538 -46 -22
-69 -26 -140 -26 -73 0 -93 4 -142 28 -72 35 -140 110 -168 185 -29 77 -25
186 10 257 31 63 98 131 156 156 95 42 172 44 271 7z m1152 -4 c252 -115 254
-478 3 -601 -49 -24 -69 -28 -142 -28 -73 0 -93 4 -142 28 -161 79 -237 274
-166 429 81 177 274 251 447 172z m-655 -225 c38 -30 49 -64 36 -105 -13 -39
-48 -64 -90 -64 -64 0 -113 66 -91 122 13 35 58 68 91 68 15 0 39 -10 54 -21z"/>
        <path d="M331 1043 c-63 -23 -134 -96 -156 -162 -21 -63 -17 -147 10 -206 l18
-40 9 65 c24 175 135 287 305 308 l68 9 -40 18 c-54 25 -158 29 -214 8z"/>
        <path d="M1490 1051 c-76 -25 -136 -78 -169 -151 -28 -62 -28 -160 1 -220 l21
-45 9 69 c10 87 35 142 88 200 55 60 128 95 214 103 l69 6 -39 20 c-42 22
-152 32 -194 18z"/>
    </g>
</svg>
