<svg height="512pt" viewBox="-21 0 512 512" width="512pt" xmlns="http://www.w3.org/2000/svg"><path d="m58.589844 117.792969v-42.539063c0-4.144531-3.359375-7.5-7.5-7.5-4.144532 0-7.5 3.355469-7.5 7.5v42.539063c0 4.144531 3.355468 7.5 7.5 7.5 4.140625 0 7.5-3.355469 7.5-7.5zm0 0"/><path d="m51.089844 211.28125c-4.144532 0-7.5 3.355469-7.5 7.5v42.539062c0 4.144532 3.355468 7.5 7.5 7.5 4.140625 0 7.5-3.355468 7.5-7.5v-42.539062c0-4.140625-3.359375-7.5-7.5-7.5zm0 0"/><path d="m462.300781 355.714844c4.144531 0 7.5-3.359375 7.5-7.5v-34.515625c0-13.863281-11.28125-25.144531-25.148437-25.144531h-81.394532c-.027343 0-.054687-.003907-.078124-.003907h-42.628907v-267.972656c0-11.347656-9.234375-20.578125-20.578125-20.578125h-279.390625c-11.347656 0-20.582031 9.230469-20.582031 20.578125v39.671875c0 4.144531 3.359375 7.5 7.5 7.5 4.144531 0 7.5-3.355469 7.5-7.5v-39.671875c0-3.074219 2.503906-5.578125 5.582031-5.578125h279.390625c3.074219 0 5.578125 2.503906 5.578125 5.578125v121.21875h-290.550781v-51.546875c0-4.144531-3.355469-7.5-7.5-7.5-4.140625 0-7.5 3.355469-7.5 7.5v58.96875.078125 42.703125.078125 264.601563c0 11.347656 9.234375 20.582031 20.582031 20.582031h4.929688v25.238281c0 5.238281 4.261719 9.5 9.5 9.5h24.851562c5.171875 0 9.394531-4.15625 9.496094-9.304688h26.625c4.144531 0 7.5-3.355468 7.5-7.5 0-4.140624-3.355469-7.5-7.5-7.5h-32.121094c-5.171875 0-9.394531 4.15625-9.5 9.304688h-13.851562v-19.738281h77.222656v9.589843c0 13.867188 11.28125 25.148438 25.148437 25.148438h301.769532c13.867187 0 25.148437-11.28125 25.148437-25.148438v-108.640624c0-4.140626-3.355469-7.5-7.5-7.5-4.140625 0-7.5 3.359374-7.5 7.5v108.640624c0 5.597657-4.550781 10.148438-10.148437 10.148438h-73.972656v-193.445312h73.972656c5.597656 0 10.148437 4.550781 10.148437 10.144531v34.515625c0 4.140625 3.359375 7.5 7.5 7.5zm-156.753906-198.917969v7.367187h-214.65625c-3.070313 0-5.957031 1.195313-8.132813 3.371094l-16.964843 16.964844h-50.792969v-27.703125zm-284.964844 305.464844c-3.078125 0-5.582031-2.503907-5.582031-5.582031v-257.179688h52.242188c3.074218 0 5.960937-1.195312 8.132812-3.367188l16.964844-16.96875h213.210937v109.386719h-162.667969c-12.890624 0-23.546874 9.753907-24.984374 22.265625-.109376.949219-.164063 1.910156-.164063 2.886719v148.558594zm335.097657 34.738281h-212.796876c-5.597656 0-10.148437-4.554688-10.148437-10.148438v-173.148437c0-5.597656 4.554687-10.148437 10.148437-10.148437h212.796876zm0 0"/><path d="m139.644531 478.589844c0 6.339844 5.160157 11.5 11.5 11.5h186.121094c6.34375 0 11.5-5.160156 11.5-11.5v-156.628906c0-6.339844-5.15625-11.5-11.5-11.5h-136.945313c-4.140624 0-7.5 3.359374-7.5 7.5 0 4.144531 3.359376 7.5 7.5 7.5h133.445313v149.628906h-179.121094v-149.628906h15.675781c4.140626 0 7.5-3.355469 7.5-7.5 0-4.140626-3.359374-7.5-7.5-7.5h-19.175781c-6.339843 0-11.5 5.160156-11.5 11.5zm0 0"/><path d="m437.5 363.210938c0-13.652344-11.105469-24.761719-24.761719-24.761719-13.652343 0-24.757812 11.109375-24.757812 24.761719 0 13.652343 11.105469 24.761718 24.757812 24.761718 13.65625 0 24.761719-11.109375 24.761719-24.761718zm-34.519531 0c0-5.382813 4.378906-9.761719 9.757812-9.761719 5.382813 0 9.761719 4.378906 9.761719 9.761719 0 5.382812-4.378906 9.761718-9.761719 9.761718-5.378906 0-9.757812-4.378906-9.757812-9.761718zm0 0"/><path d="m400.535156 408.480469h-7.398437c-4.140625 0-7.5 3.355469-7.5 7.5 0 4.140625 3.359375 7.5 7.5 7.5h7.398437c4.140625 0 7.5-3.359375 7.5-7.5 0-4.144531-3.359375-7.5-7.5-7.5zm0 0"/><path d="m432.34375 408.480469h-7.398438c-4.140624 0-7.5 3.355469-7.5 7.5 0 4.140625 3.359376 7.5 7.5 7.5h7.398438c4.140625 0 7.5-3.359375 7.5-7.5 0-4.144531-3.359375-7.5-7.5-7.5zm0 0"/><path d="m400.535156 437.082031h-7.398437c-4.140625 0-7.5 3.355469-7.5 7.5s3.359375 7.5 7.5 7.5h7.398437c4.140625 0 7.5-3.355469 7.5-7.5s-3.359375-7.5-7.5-7.5zm0 0"/><path d="m432.34375 437.082031h-7.398438c-4.140624 0-7.5 3.355469-7.5 7.5s3.359376 7.5 7.5 7.5h7.398438c4.140625 0 7.5-3.355469 7.5-7.5s-3.359375-7.5-7.5-7.5zm0 0"/></svg>