<?xml version="1.0"?>
<svg xmlns="http://www.w3.org/2000/svg" id="outline" viewBox="0 0 512 512" width="512" height="512"><title>strategy-strategic-management-planning-chess</title><path d="M480.4375,441.34375A18.9107,18.9107,0,0,1,472,425.57812V416a8.00008,8.00008,0,0,0-8-8V352a7.99748,7.99748,0,0,0-1.92578-5.20605l-38.80371-45.27149,30.1997,10.06738A8.0122,8.0122,0,0,0,456,312h24a8.00008,8.00008,0,0,0,8-8V280a7.99975,7.99975,0,0,0-2.87842-6.14551L440,236.25293V208a7.99948,7.99948,0,0,0-9.94043-7.76074l-32,8a7.99818,7.99818,0,0,0-5.64893,5.23047l-6.29638,18.88965a48.05189,48.05189,0,0,0-34.39136,21.57568,7.9943,7.9943,0,0,0-3.2854-4.59131l-19.542-13.02808,14.94922-74.74633A8.00012,8.00012,0,0,0,336,152H320a8.00035,8.00035,0,0,0-5.65674,2.34277l-8.15185,8.15235-3.03614-6.07324A7.99967,7.99967,0,0,0,296,152H280a7.99967,7.99967,0,0,0-7.15527,4.42188l-3.03614,6.07324-8.15185-8.15235A8.00035,8.00035,0,0,0,256,152H240a8.00012,8.00012,0,0,0-7.84473,9.56934l14.94922,74.74633-19.542,13.02808a7.97584,7.97584,0,0,0-.9884.79395,39.97733,39.97733,0,0,0-53.42688,59.48291L155.5625,321.34375A7.99943,7.99943,0,0,0,152,328v16a8.00008,8.00008,0,0,0,8,8h8v11.15527a87.30385,87.30385,0,0,1-2.7821,21.88379A160.42811,160.42811,0,0,1,144,305.35254V161.88867l23.15527-46.31055a8.00091,8.00091,0,0,0-1.49853-9.23535l-32-32A8.00035,8.00035,0,0,0,128,72H112V48h16V32H112V16H96V32H80V48H96V72H80a8.00035,8.00035,0,0,0-5.65674,2.34277l-32,32a8.00091,8.00091,0,0,0-1.49853,9.23535L64,161.88867V305.35254a160.44194,160.44194,0,0,1-22.85986,82.53125A7.99008,7.99008,0,0,0,40.00586,392H40v15.0293a32.75408,32.75408,0,0,1-9.65674,23.31347A48.65073,48.65073,0,0,0,16,464.9707V488a8.00008,8.00008,0,0,0,8,8H488a8.00008,8.00008,0,0,0,8-8V470.42188A34.87664,34.87664,0,0,0,480.4375,441.34375ZM360,280a32.03635,32.03635,0,0,1,32-32,7.99967,7.99967,0,0,0,7.58936-5.46973l6.61132-19.834L424,218.24609V240a7.99975,7.99975,0,0,0,2.87842,6.14551L472,283.74707V296H457.29834l-46.76855-15.58984A8,8,0,0,0,400,288v8a7.99748,7.99748,0,0,0,1.92578,5.20605L448,354.959V408H380.52954L360,373.78418ZM345.14014,380.11621l17.80932,29.68213A7.98156,7.98156,0,0,0,360,416v9.57812a18.9022,18.9022,0,0,1-8,15.45411,18.9022,18.9022,0,0,1-8-15.45411V416a8.00008,8.00008,0,0,0-8-8h-3.583A86.95562,86.95562,0,0,1,320,363.15527V280h24v96A7.99883,7.99883,0,0,0,345.14014,380.11621ZM272,363.15527V280h32v83.15527A102.91925,102.91925,0,0,0,314.23682,408H261.76318A102.91925,102.91925,0,0,0,272,363.15527ZM252.68652,168l13.65674,13.65723a8.00064,8.00064,0,0,0,12.812-2.07911L284.94434,168h6.11132l5.78907,11.57812a8.00064,8.00064,0,0,0,12.812,2.07911L323.31348,168h2.92822l-12.80029,64H262.55859L249.7583,168ZM240,260.28125,258.42236,248h59.15528L336,260.28125V264H240ZM256,280v83.15527a86.94941,86.94941,0,0,1-12,44.1377,86.94941,86.94941,0,0,1-12-44.1377V352h8a8.00008,8.00008,0,0,0,8-8V328a7.99943,7.99943,0,0,0-3.5625-6.65625l-17.58472-11.72314A39.90588,39.90588,0,0,0,240,280Zm-56-24a24,24,0,1,1-24,24A24.0275,24.0275,0,0,1,200,256Zm-32,76.28125L186.42236,320h27.15528L232,332.28125V336H168ZM216,352v11.15527A102.90329,102.90329,0,0,0,226.251,408H173.749A102.90329,102.90329,0,0,0,184,363.15527V352ZM57.73389,113.58008,83.314,88H124.686l25.58007,25.58008L131.05566,152H76.94434ZM80,305.35254V168h48V305.35254A176.44741,176.44741,0,0,0,146.50146,384H61.49854A176.44741,176.44741,0,0,0,80,305.35254Zm40,165.06934V480H32V464.9707a32.75408,32.75408,0,0,1,9.65674-23.31347A48.65073,48.65073,0,0,0,56,407.0293V400h96v7.0293c0,.32373.02051.647.02686.9707H152a8.00008,8.00008,0,0,0-8,8v9.57812a18.9107,18.9107,0,0,1-8.4375,15.76563A34.87664,34.87664,0,0,0,120,470.42188ZM264,480H136v-9.57812a18.9107,18.9107,0,0,1,8.4375-15.76563A34.87664,34.87664,0,0,0,160,425.57812V424h80v1.57812a34.87664,34.87664,0,0,0,15.5625,29.07813A18.9107,18.9107,0,0,1,264,470.42188Zm88,0H280v-9.57812a34.87664,34.87664,0,0,0-15.5625-29.07813A18.9107,18.9107,0,0,1,256,425.57812V424h72v1.57812a34.87664,34.87664,0,0,0,15.5625,29.07813A18.9107,18.9107,0,0,1,352,470.42188Zm128,0H368v-9.57812a34.89258,34.89258,0,0,0-4.8645-17.77735A34.85464,34.85464,0,0,0,376,425.57812V424h80v1.57812a34.87664,34.87664,0,0,0,15.5625,29.07813A18.9107,18.9107,0,0,1,480,470.42188Z"/></svg>
